<svg xmlns="http://www.w3.org/2000/svg" xmlns:xlink="http://www.w3.org/1999/xlink" width="2000" zoomAndPan="magnify" viewBox="0 0 1500 1499.999933" height="2000" preserveAspectRatio="xMidYMid meet" version="1.0"><defs><clipPath id="60970d59a7"><path d="M 116.0625 92.070312 L 1429.3125 92.070312 L 1429.3125 1405 L 116.0625 1405 Z M 116.0625 92.070312 " clip-rule="nonzero"/></clipPath><clipPath id="b9a6fdd718"><path d="M 772.613281 92.070312 C 410.011719 92.070312 116.0625 385.972656 116.0625 748.523438 C 116.0625 1111.074219 410.011719 1404.980469 772.613281 1404.980469 C 1135.214844 1404.980469 1429.160156 1111.074219 1429.160156 748.523438 C 1429.160156 385.972656 1135.214844 92.070312 772.613281 92.070312 Z M 772.613281 92.070312 " clip-rule="nonzero"/></clipPath><clipPath id="99e2239280"><path d="M 444 271.289062 L 693 271.289062 L 693 603 L 444 603 Z M 444 271.289062 " clip-rule="nonzero"/></clipPath><clipPath id="c135b2424c"><path d="M 365.566406 947.398438 L 1079.894531 947.398438 L 1079.894531 1149.460938 L 365.566406 1149.460938 Z M 365.566406 947.398438 " clip-rule="nonzero"/></clipPath><clipPath id="6163457d7c"><path d="M 347.117188 673 L 760 673 L 760 1050 L 347.117188 1050 Z M 347.117188 673 " clip-rule="nonzero"/></clipPath><clipPath id="572f45f0c3"><path d="M 952.054688 432.082031 L 1350.617188 432.082031 L 1350.617188 1023 L 952.054688 1023 Z M 952.054688 432.082031 " clip-rule="nonzero"/></clipPath></defs><rect x="-150" width="1800" fill="#ffffff" y="-149.999993" height="1799.99992" fill-opacity="1"/><rect x="-150" width="1800" fill="#2e1f0e" y="-149.999993" height="1799.99992" fill-opacity="1"/><g clip-path="url(#60970d59a7)"><g clip-path="url(#b9a6fdd718)"><path stroke-linecap="butt" transform="matrix(0.75, 0, 0, 0.75, 116.063987, 92.06929)" fill="none" stroke-linejoin="miter" d="M 875.39919 0.00136271 C 391.930367 0.00136271 -0.00198314 391.871213 -0.00198314 875.272327 C -0.00198314 1358.673442 391.930367 1750.548501 875.39919 1750.548501 C 1358.868013 1750.548501 1750.795155 1358.673442 1750.795155 875.272327 C 1750.795155 391.871213 1358.868013 0.00136271 875.39919 0.00136271 Z M 875.39919 0.00136271 " stroke="#ddc04f" stroke-width="60" stroke-opacity="1" stroke-miterlimit="4"/></g></g><g clip-path="url(#99e2239280)"><path fill="#760504" d="M 564.105469 281.210938 L 444.101562 602.265625 L 598.691406 585.730469 L 692.164062 271.292969 L 564.105469 281.210938 " fill-opacity="1" fill-rule="nonzero"/></g><path fill="#ddc04f" d="M 742.195312 349.230469 L 947.425781 602.265625 L 854.484375 683.019531 L 655.210938 639.929688 L 742.195312 349.230469 " fill-opacity="1" fill-rule="nonzero"/><path fill="#f9f7f0" d="M 808.507812 288.894531 L 1076.535156 279.28125 L 918.84375 510.675781 Z M 808.507812 288.894531 " fill-opacity="1" fill-rule="nonzero"/><g clip-path="url(#c135b2424c)"><path fill="#ddc04f" d="M 1040.5 947.835938 L 1079.78125 1148.800781 L 365.839844 1149.460938 L 393.457031 1070.757812 L 1040.5 947.835938 " fill-opacity="1" fill-rule="nonzero"/></g><g clip-path="url(#6163457d7c)"><path fill="#f9f7f0" d="M 347.117188 1049.941406 L 759.820312 719.890625 L 433.585938 673.082031 Z M 347.117188 1049.941406 " fill-opacity="1" fill-rule="nonzero"/></g><path fill="#d0483a" d="M 540.871094 980.492188 L 848.757812 721.738281 L 999.277344 914.726562 Z M 540.871094 980.492188 " fill-opacity="1" fill-rule="nonzero"/><g clip-path="url(#572f45f0c3)"><path fill="#760504" d="M 952.464844 691.625 L 1072.203125 432.449219 L 1350.757812 704.984375 L 1100.921875 1022.792969 L 952.464844 691.625 " fill-opacity="1" fill-rule="nonzero"/></g></svg>