<svg xmlns="http://www.w3.org/2000/svg" xmlns:xlink="http://www.w3.org/1999/xlink" width="2000" zoomAndPan="magnify" viewBox="0 0 1500 899.99999" height="1200" preserveAspectRatio="xMidYMid meet" version="1.0"><defs><g/><clipPath id="febf11bbd4"><path d="M 300.542969 0 L 1186.960938 0 L 1186.960938 390.492188 L 300.542969 390.492188 Z M 300.542969 0 " clip-rule="nonzero"/></clipPath><clipPath id="468768e5db"><path d="M 306.542969 0 L 1180.792969 0 C 1184.109375 0 1186.792969 2.6875 1186.792969 6 L 1186.792969 384.492188 C 1186.792969 387.804688 1184.109375 390.492188 1180.792969 390.492188 L 306.542969 390.492188 C 303.230469 390.492188 300.542969 387.804688 300.542969 384.492188 L 300.542969 6 C 300.542969 2.6875 303.230469 0 306.542969 0 Z M 306.542969 0 " clip-rule="nonzero"/></clipPath><clipPath id="30622733b8"><path d="M 0.542969 0 L 886.960938 0 L 886.960938 390.492188 L 0.542969 390.492188 Z M 0.542969 0 " clip-rule="nonzero"/></clipPath><clipPath id="cdfa7ba70a"><path d="M 6.542969 0 L 880.792969 0 C 884.109375 0 886.792969 2.6875 886.792969 6 L 886.792969 384.492188 C 886.792969 387.804688 884.109375 390.492188 880.792969 390.492188 L 6.542969 390.492188 C 3.230469 390.492188 0.542969 387.804688 0.542969 384.492188 L 0.542969 6 C 0.542969 2.6875 3.230469 0 6.542969 0 Z M 6.542969 0 " clip-rule="nonzero"/></clipPath><clipPath id="5fe8e974d5"><rect x="0" width="887" y="0" height="391"/></clipPath><clipPath id="9a50f6c116"><path d="M 327 487 L 382 487 L 382 638 L 327 638 Z M 327 487 " clip-rule="nonzero"/></clipPath><clipPath id="53434d2953"><path d="M 458.027344 594.832031 L 92.453125 720.726562 L -17.023438 402.835938 L 348.550781 276.9375 Z M 458.027344 594.832031 " clip-rule="nonzero"/></clipPath><clipPath id="0ab5c55f55"><path d="M 458.027344 594.832031 L 92.453125 720.726562 L -17.023438 402.835938 L 348.550781 276.9375 Z M 458.027344 594.832031 " clip-rule="nonzero"/></clipPath><clipPath id="b0ac138aff"><path d="M 199 499 L 306 499 L 306 616 L 199 616 Z M 199 499 " clip-rule="nonzero"/></clipPath><clipPath id="0ff68c2dcf"><path d="M 458.027344 594.832031 L 92.453125 720.726562 L -17.023438 402.835938 L 348.550781 276.9375 Z M 458.027344 594.832031 " clip-rule="nonzero"/></clipPath><clipPath id="1a45d6d4c7"><path d="M 458.027344 594.832031 L 92.453125 720.726562 L -17.023438 402.835938 L 348.550781 276.9375 Z M 458.027344 594.832031 " clip-rule="nonzero"/></clipPath><clipPath id="373dcb9297"><path d="M 192 579 L 289 579 L 289 683 L 192 683 Z M 192 579 " clip-rule="nonzero"/></clipPath><clipPath id="8d73374924"><path d="M 458.027344 594.832031 L 92.453125 720.726562 L -17.023438 402.835938 L 348.550781 276.9375 Z M 458.027344 594.832031 " clip-rule="nonzero"/></clipPath><clipPath id="929850893d"><path d="M 458.027344 594.832031 L 92.453125 720.726562 L -17.023438 402.835938 L 348.550781 276.9375 Z M 458.027344 594.832031 " clip-rule="nonzero"/></clipPath><clipPath id="adb1944054"><path d="M 83 279 L 342 279 L 342 437 L 83 437 Z M 83 279 " clip-rule="nonzero"/></clipPath><clipPath id="70967c271b"><path d="M 458.027344 594.832031 L 92.453125 720.726562 L -17.023438 402.835938 L 348.550781 276.9375 Z M 458.027344 594.832031 " clip-rule="nonzero"/></clipPath><clipPath id="54a9529237"><path d="M 458.027344 594.832031 L 92.453125 720.726562 L -17.023438 402.835938 L 348.550781 276.9375 Z M 458.027344 594.832031 " clip-rule="nonzero"/></clipPath><clipPath id="52d50b4361"><path d="M 367.046875 352.382812 L 108.457031 441.4375 L 83.269531 368.289062 L 341.855469 279.238281 Z M 367.046875 352.382812 " clip-rule="nonzero"/></clipPath><clipPath id="abbd3460fa"><path d="M 252 312 L 377 312 L 377 484 L 252 484 Z M 252 312 " clip-rule="nonzero"/></clipPath><clipPath id="0e64130e23"><path d="M 458.027344 594.832031 L 92.453125 720.726562 L -17.023438 402.835938 L 348.550781 276.9375 Z M 458.027344 594.832031 " clip-rule="nonzero"/></clipPath><clipPath id="bb42d7b5c6"><path d="M 458.027344 594.832031 L 92.453125 720.726562 L -17.023438 402.835938 L 348.550781 276.9375 Z M 458.027344 594.832031 " clip-rule="nonzero"/></clipPath><clipPath id="fba1ef5829"><path d="M 141 362 L 300 362 L 300 495 L 141 495 Z M 141 362 " clip-rule="nonzero"/></clipPath><clipPath id="e29549bb1e"><path d="M 458.027344 594.832031 L 92.453125 720.726562 L -17.023438 402.835938 L 348.550781 276.9375 Z M 458.027344 594.832031 " clip-rule="nonzero"/></clipPath><clipPath id="7de8ad7b51"><path d="M 458.027344 594.832031 L 92.453125 720.726562 L -17.023438 402.835938 L 348.550781 276.9375 Z M 458.027344 594.832031 " clip-rule="nonzero"/></clipPath><clipPath id="eaa212ddb8"><path d="M 40 416 L 187 416 L 187 627 L 40 627 Z M 40 416 " clip-rule="nonzero"/></clipPath><clipPath id="15f154d5ea"><path d="M 458.027344 594.832031 L 92.453125 720.726562 L -17.023438 402.835938 L 348.550781 276.9375 Z M 458.027344 594.832031 " clip-rule="nonzero"/></clipPath><clipPath id="a175e41cc7"><path d="M 458.027344 594.832031 L 92.453125 720.726562 L -17.023438 402.835938 L 348.550781 276.9375 Z M 458.027344 594.832031 " clip-rule="nonzero"/></clipPath><clipPath id="c77feed07d"><path d="M 218.980469 612.042969 L 74.648438 661.75 L 0.957031 447.769531 L 145.289062 398.066406 Z M 218.980469 612.042969 " clip-rule="nonzero"/></clipPath><clipPath id="2406ebcddb"><rect x="0" width="770" y="0" height="372"/></clipPath><clipPath id="fdce7c16f3"><rect x="0" width="1187" y="0" height="686"/></clipPath></defs><rect x="-150" width="1800" fill="#ffffff" y="-89.999999" height="1079.999988" fill-opacity="1"/><rect x="-150" width="1800" fill="#2e1f0e" y="-89.999999" height="1079.999988" fill-opacity="1"/><g transform="matrix(1, 0, 0, 1, 164, 90)"><g clip-path="url(#fdce7c16f3)"><g clip-path="url(#febf11bbd4)"><g clip-path="url(#468768e5db)"><g transform="matrix(1, 0, 0, 1, 300, 0.000000000000099476)"><g clip-path="url(#5fe8e974d5)"><g clip-path="url(#30622733b8)"><g clip-path="url(#cdfa7ba70a)"><path fill="#faf6ef" d="M 0.542969 0 L 886.777344 0 L 886.777344 390.492188 L 0.542969 390.492188 Z M 0.542969 0 " fill-opacity="1" fill-rule="nonzero"/></g></g></g></g></g></g><g clip-path="url(#9a50f6c116)"><g clip-path="url(#53434d2953)"><g clip-path="url(#0ab5c55f55)"><path fill="#600700" d="M 378.226562 618.296875 L 381.644531 487.113281 L 327.742188 512.371094 L 333.105469 637.851562 L 378.226562 618.296875 " fill-opacity="1" fill-rule="nonzero"/></g></g></g><g clip-path="url(#b0ac138aff)"><g clip-path="url(#0ff68c2dcf)"><g clip-path="url(#1a45d6d4c7)"><path fill="#93281b" d="M 305.277344 615.875 L 199.4375 549.859375 L 223.015625 509.042969 L 300.527344 499.796875 L 305.277344 615.875 " fill-opacity="1" fill-rule="nonzero"/></g></g></g><g clip-path="url(#373dcb9297)"><g clip-path="url(#8d73374924)"><g clip-path="url(#929850893d)"><path fill="#ddc04f" d="M 288.796875 645.984375 L 192.96875 682.878906 L 221.203125 579.453125 Z M 288.796875 645.984375 " fill-opacity="1" fill-rule="nonzero"/></g></g></g><g clip-path="url(#adb1944054)"><g clip-path="url(#70967c271b)"><g clip-path="url(#54a9529237)"><g clip-path="url(#52d50b4361)"><path fill="#93281b" d="M 122.664062 436.367188 L 83.390625 368.515625 L 341.757812 279.269531 L 341.570312 311.203125 L 122.664062 436.367188 " fill-opacity="1" fill-rule="nonzero"/></g></g></g></g><g clip-path="url(#abbd3460fa)"><g clip-path="url(#0e64130e23)"><g clip-path="url(#bb42d7b5c6)"><path fill="#ddc04f" d="M 360.941406 312.964844 L 252.6875 483.890625 L 376.621094 460.167969 Z M 360.941406 312.964844 " fill-opacity="1" fill-rule="nonzero"/></g></g></g><g clip-path="url(#fba1ef5829)"><g clip-path="url(#e29549bb1e)"><g clip-path="url(#7de8ad7b51)"><path fill="#d0483a" d="M 299.460938 362.257812 L 220.261719 494.3125 L 141.714844 443.214844 Z M 299.460938 362.257812 " fill-opacity="1" fill-rule="nonzero"/></g></g></g><g clip-path="url(#eaa212ddb8)"><g clip-path="url(#15f154d5ea)"><g clip-path="url(#a175e41cc7)"><g clip-path="url(#c77feed07d)"><path fill="#760504" d="M 186.472656 518.140625 L 175.441406 626.890625 L 40.625 562.957031 L 91.445312 416.765625 L 186.472656 518.140625 " fill-opacity="1" fill-rule="nonzero"/></g></g></g></g><g transform="matrix(1, 0, 0, 1, 359, 21)"><g clip-path="url(#2406ebcddb)"><g fill="#2e1f0d" fill-opacity="1"><g transform="translate(2.512867, 279.655135)"><g><path d="M 77.171875 3.15625 C 68.921875 3.15625 60.484375 1.914062 51.859375 -0.5625 C 43.234375 -3.039062 35.242188 -6.710938 27.890625 -11.578125 C 20.546875 -16.453125 14.472656 -22.492188 9.671875 -29.703125 L 14.171875 -61.859375 L 23.390625 -61.859375 C 26.390625 -51.660156 30.925781 -42.773438 37 -35.203125 C 43.082031 -27.628906 50.019531 -21.816406 57.8125 -17.765625 C 65.613281 -13.722656 73.640625 -11.703125 81.890625 -11.703125 C 90.140625 -11.703125 96.773438 -13.203125 101.796875 -16.203125 C 106.816406 -19.203125 110.523438 -22.945312 112.921875 -27.4375 C 115.328125 -31.9375 116.53125 -36.4375 116.53125 -40.9375 C 116.53125 -46.9375 114.65625 -52.785156 110.90625 -58.484375 C 107.15625 -64.191406 102.207031 -69.78125 96.0625 -75.25 C 89.914062 -80.726562 83.164062 -86.164062 75.8125 -91.5625 C 68.46875 -96.957031 61.117188 -102.429688 53.765625 -107.984375 C 46.421875 -113.535156 39.671875 -119.160156 33.515625 -124.859375 C 27.367188 -130.554688 22.421875 -136.476562 18.671875 -142.625 C 14.921875 -148.78125 13.046875 -155.15625 13.046875 -161.75 C 13.046875 -172.25 15.859375 -180.945312 21.484375 -187.84375 C 27.109375 -194.75 34.457031 -199.925781 43.53125 -203.375 C 52.601562 -206.820312 62.390625 -208.546875 72.890625 -208.546875 C 81.285156 -208.546875 89.679688 -207.609375 98.078125 -205.734375 C 106.484375 -203.859375 114.320312 -201.117188 121.59375 -197.515625 C 128.863281 -193.921875 134.898438 -189.425781 139.703125 -184.03125 L 135.203125 -154.328125 L 125.75 -154.328125 C 123.507812 -163.179688 119.3125 -170.644531 113.15625 -176.71875 C 107.007812 -182.789062 100.070312 -187.398438 92.34375 -190.546875 C 84.625 -193.691406 77.164062 -195.265625 69.96875 -195.265625 C 62.164062 -195.265625 55.453125 -193.316406 49.828125 -189.421875 C 44.203125 -185.523438 41.390625 -179.601562 41.390625 -171.65625 C 41.390625 -167.457031 43.1875 -163.144531 46.78125 -158.71875 C 50.382812 -154.289062 55.148438 -149.710938 61.078125 -144.984375 C 67.003906 -140.265625 73.53125 -135.316406 80.65625 -130.140625 C 87.78125 -124.972656 94.941406 -119.578125 102.140625 -113.953125 C 109.335938 -108.328125 115.9375 -102.4375 121.9375 -96.28125 C 127.9375 -90.132812 132.847656 -83.648438 136.671875 -76.828125 C 140.492188 -70.003906 142.554688 -62.84375 142.859375 -55.34375 C 143.304688 -43.34375 140.53125 -32.957031 134.53125 -24.1875 C 128.53125 -15.414062 120.46875 -8.664062 110.34375 -3.9375 C 100.21875 0.789062 89.160156 3.15625 77.171875 3.15625 Z M 77.171875 3.15625 "/></g></g></g><g fill="#2e1f0d" fill-opacity="1"><g transform="translate(152.988956, 279.655135)"><g><path d="M 101.453125 0 L 68.84375 0 L 68.84375 -191.21875 C 55.644531 -191.070312 44.054688 -189.875 34.078125 -187.625 C 24.109375 -185.375 16.570312 -180.5 11.46875 -173 L 2.25 -173 L 8.328125 -205.171875 L 161.75 -205.171875 L 167.828125 -173 L 158.609375 -173 C 153.503906 -180.5 146.003906 -185.375 136.109375 -187.625 C 126.210938 -189.875 114.660156 -191.070312 101.453125 -191.21875 Z M 101.453125 0 "/></g></g></g><g fill="#2e1f0d" fill-opacity="1"><g transform="translate(323.033685, 279.655135)"><g><path d="M 27.890625 3.15625 C 22.796875 3.15625 18.410156 1.351562 14.734375 -2.25 C 11.054688 -5.851562 9.21875 -10.128906 9.21875 -15.078125 C 9.21875 -20.328125 11.054688 -24.75 14.734375 -28.34375 C 18.410156 -31.945312 22.796875 -33.75 27.890625 -33.75 C 32.835938 -33.75 37.113281 -31.945312 40.71875 -28.34375 C 44.320312 -24.75 46.125 -20.328125 46.125 -15.078125 C 46.125 -10.128906 44.320312 -5.851562 40.71875 -2.25 C 37.113281 1.351562 32.835938 3.15625 27.890625 3.15625 Z M 27.890625 3.15625 "/></g></g></g><g fill="#2e1f0d" fill-opacity="1"><g transform="translate(378.590627, 279.655135)"><g><path d="M 94.71875 -205.171875 L 155.453125 0 L 130.25 0 L 130.25 -9 C 130.25 -16.34375 129.570312 -23.238281 128.21875 -29.6875 C 126.875 -36.144531 125.378906 -42.222656 123.734375 -47.921875 L 114.515625 -79.859375 L 60.296875 -79.859375 L 37.125 0 L 6.296875 0 L 67.046875 -205.171875 Z M 87.734375 -173.90625 L 64.34375 -93.8125 L 110.6875 -93.8125 Z M 87.734375 -173.90625 "/></g></g></g><g fill="#2e1f0d" fill-opacity="1"><g transform="translate(540.537987, 279.655135)"><g><path d="M 42.296875 0 L 9.671875 0 L 9.671875 -170.296875 L 42.296875 -170.296875 L 42.296875 -119.015625 C 47.847656 -124.109375 52.796875 -129.578125 57.140625 -135.421875 C 61.492188 -141.273438 65.921875 -146.863281 70.421875 -152.1875 C 74.921875 -157.507812 80.09375 -161.859375 85.9375 -165.234375 C 91.789062 -168.609375 98.988281 -170.296875 107.53125 -170.296875 L 107.53125 -141.5 C 97.488281 -141.5 86.539062 -138.238281 74.6875 -131.71875 C 62.84375 -125.195312 52.046875 -115.5625 42.296875 -102.8125 Z M 42.296875 0 "/></g></g></g><g fill="#2e1f0d" fill-opacity="1"><g transform="translate(654.800847, 279.655135)"><g><path d="M 62.546875 3.15625 C 54.597656 3.15625 47.097656 1.242188 40.046875 -2.578125 C 32.992188 -6.410156 27.289062 -12.113281 22.9375 -19.6875 C 18.59375 -27.257812 16.421875 -36.671875 16.421875 -47.921875 L 16.421875 -156.578125 L 2.921875 -156.578125 L 2.921875 -170.296875 L 16.421875 -170.296875 C 18.671875 -171.648438 20.957031 -174.390625 23.28125 -178.515625 C 25.601562 -182.640625 27.816406 -187.328125 29.921875 -192.578125 C 32.023438 -197.828125 33.710938 -203 34.984375 -208.09375 C 36.253906 -213.195312 36.890625 -217.394531 36.890625 -220.6875 L 48.8125 -220.6875 L 49.046875 -170.296875 L 87.515625 -170.296875 L 87.515625 -156.578125 L 49.046875 -156.578125 L 49.046875 -50.390625 C 49.046875 -35.691406 50.84375 -25.003906 54.4375 -18.328125 C 58.039062 -11.660156 62.316406 -8.328125 67.265625 -8.328125 C 71.160156 -8.328125 75.09375 -10.203125 79.0625 -13.953125 C 83.039062 -17.703125 86.601562 -23.023438 89.75 -29.921875 C 92.90625 -36.816406 95.082031 -44.84375 96.28125 -54 L 105.734375 -54 L 110.234375 -24.078125 C 104.234375 -15.078125 96.957031 -8.285156 88.40625 -3.703125 C 79.863281 0.867188 71.242188 3.15625 62.546875 3.15625 Z M 62.546875 3.15625 "/></g></g></g></g></g></g></g></svg>