<svg xmlns="http://www.w3.org/2000/svg" xmlns:xlink="http://www.w3.org/1999/xlink" width="2000" zoomAndPan="magnify" viewBox="0 0 1500 899.99999" height="1200" preserveAspectRatio="xMidYMid meet" version="1.0"><defs><g/><clipPath id="7a8c7591e3"><path d="M 367.015625 0.878906 L 1450.640625 0.878906 L 1450.640625 478.277344 L 367.015625 478.277344 Z M 367.015625 0.878906 " clip-rule="nonzero"/></clipPath><clipPath id="e1b91fe627"><path d="M 373.015625 0.878906 L 1444.503906 0.878906 C 1447.816406 0.878906 1450.503906 3.566406 1450.503906 6.878906 L 1450.503906 472.277344 C 1450.503906 475.589844 1447.816406 478.277344 1444.503906 478.277344 L 373.015625 478.277344 C 369.699219 478.277344 367.015625 475.589844 367.015625 472.277344 L 367.015625 6.878906 C 367.015625 3.566406 369.699219 0.878906 373.015625 0.878906 Z M 373.015625 0.878906 " clip-rule="nonzero"/></clipPath><clipPath id="991a9f2959"><path d="M 0.015625 0.878906 L 1083.640625 0.878906 L 1083.640625 478.277344 L 0.015625 478.277344 Z M 0.015625 0.878906 " clip-rule="nonzero"/></clipPath><clipPath id="ba971f8a57"><path d="M 6.015625 0.878906 L 1077.503906 0.878906 C 1080.816406 0.878906 1083.503906 3.566406 1083.503906 6.878906 L 1083.503906 472.277344 C 1083.503906 475.589844 1080.816406 478.277344 1077.503906 478.277344 L 6.015625 478.277344 C 2.699219 478.277344 0.015625 475.589844 0.015625 472.277344 L 0.015625 6.878906 C 0.015625 3.566406 2.699219 0.878906 6.015625 0.878906 Z M 6.015625 0.878906 " clip-rule="nonzero"/></clipPath><clipPath id="10013e53f9"><rect x="0" width="1084" y="0" height="479"/></clipPath><clipPath id="b787f6cd73"><path d="M 400 596 L 467 596 L 467 781 L 400 781 Z M 400 596 " clip-rule="nonzero"/></clipPath><clipPath id="7305bdbb7f"><path d="M 559.546875 728.09375 L 112.609375 882.007812 L -21.226562 493.371094 L 425.707031 339.453125 Z M 559.546875 728.09375 " clip-rule="nonzero"/></clipPath><clipPath id="3b49b15edd"><path d="M 559.546875 728.09375 L 112.609375 882.007812 L -21.226562 493.371094 L 425.707031 339.453125 Z M 559.546875 728.09375 " clip-rule="nonzero"/></clipPath><clipPath id="78e855d44e"><path d="M 243 611 L 373 611 L 373 754 L 243 754 Z M 243 611 " clip-rule="nonzero"/></clipPath><clipPath id="bdd3093a41"><path d="M 559.546875 728.09375 L 112.609375 882.007812 L -21.226562 493.371094 L 425.707031 339.453125 Z M 559.546875 728.09375 " clip-rule="nonzero"/></clipPath><clipPath id="94f4d62fe6"><path d="M 559.546875 728.09375 L 112.609375 882.007812 L -21.226562 493.371094 L 425.707031 339.453125 Z M 559.546875 728.09375 " clip-rule="nonzero"/></clipPath><clipPath id="5d99c96fa2"><path d="M 235 709 L 353 709 L 353 836 L 235 836 Z M 235 709 " clip-rule="nonzero"/></clipPath><clipPath id="31b556ad46"><path d="M 559.546875 728.09375 L 112.609375 882.007812 L -21.226562 493.371094 L 425.707031 339.453125 Z M 559.546875 728.09375 " clip-rule="nonzero"/></clipPath><clipPath id="ab371656c5"><path d="M 559.546875 728.09375 L 112.609375 882.007812 L -21.226562 493.371094 L 425.707031 339.453125 Z M 559.546875 728.09375 " clip-rule="nonzero"/></clipPath><clipPath id="5bcfea40e5"><path d="M 101 342 L 418 342 L 418 535 L 101 535 Z M 101 342 " clip-rule="nonzero"/></clipPath><clipPath id="f8ac0d4f63"><path d="M 559.546875 728.09375 L 112.609375 882.007812 L -21.226562 493.371094 L 425.707031 339.453125 Z M 559.546875 728.09375 " clip-rule="nonzero"/></clipPath><clipPath id="0ab9229db3"><path d="M 559.546875 728.09375 L 112.609375 882.007812 L -21.226562 493.371094 L 425.707031 339.453125 Z M 559.546875 728.09375 " clip-rule="nonzero"/></clipPath><clipPath id="681817c27e"><path d="M 448.316406 431.6875 L 132.179688 540.5625 L 101.382812 451.136719 L 417.519531 342.261719 Z M 448.316406 431.6875 " clip-rule="nonzero"/></clipPath><clipPath id="907f5a5dd8"><path d="M 308 383 L 461 383 L 461 593 L 308 593 Z M 308 383 " clip-rule="nonzero"/></clipPath><clipPath id="92b576edc8"><path d="M 559.546875 728.09375 L 112.609375 882.007812 L -21.226562 493.371094 L 425.707031 339.453125 Z M 559.546875 728.09375 " clip-rule="nonzero"/></clipPath><clipPath id="1d6da0ba1d"><path d="M 559.546875 728.09375 L 112.609375 882.007812 L -21.226562 493.371094 L 425.707031 339.453125 Z M 559.546875 728.09375 " clip-rule="nonzero"/></clipPath><clipPath id="b6ba311949"><path d="M 172 443 L 366 443 L 366 606 L 172 606 Z M 172 443 " clip-rule="nonzero"/></clipPath><clipPath id="29bc541aa0"><path d="M 559.546875 728.09375 L 112.609375 882.007812 L -21.226562 493.371094 L 425.707031 339.453125 Z M 559.546875 728.09375 " clip-rule="nonzero"/></clipPath><clipPath id="39c98ba8e8"><path d="M 559.546875 728.09375 L 112.609375 882.007812 L -21.226562 493.371094 L 425.707031 339.453125 Z M 559.546875 728.09375 " clip-rule="nonzero"/></clipPath><clipPath id="e9b4651c24"><path d="M 49 510 L 228 510 L 228 768 L 49 768 Z M 49 510 " clip-rule="nonzero"/></clipPath><clipPath id="e4271aba47"><path d="M 559.546875 728.09375 L 112.609375 882.007812 L -21.226562 493.371094 L 425.707031 339.453125 Z M 559.546875 728.09375 " clip-rule="nonzero"/></clipPath><clipPath id="92f22746b3"><path d="M 559.546875 728.09375 L 112.609375 882.007812 L -21.226562 493.371094 L 425.707031 339.453125 Z M 559.546875 728.09375 " clip-rule="nonzero"/></clipPath><clipPath id="08174ad923"><path d="M 267.296875 749.140625 L 90.84375 809.90625 L 0.753906 548.304688 L 177.207031 487.539062 Z M 267.296875 749.140625 " clip-rule="nonzero"/></clipPath><clipPath id="0b5ba64447"><rect x="0" width="946" y="0" height="460"/></clipPath><clipPath id="9f868bac99"><rect x="0" width="1451" y="0" height="840"/></clipPath></defs><rect x="-150" width="1800" fill="#ffffff" y="-89.999999" height="1079.999988" fill-opacity="1"/><rect x="-150" width="1800" fill="#faf6ef" y="-89.999999" height="1079.999988" fill-opacity="1"/><g transform="matrix(1, 0, 0, 1, 34, 9)"><g clip-path="url(#9f868bac99)"><g clip-path="url(#7a8c7591e3)"><g clip-path="url(#e1b91fe627)"><g transform="matrix(1, 0, 0, 1, 367, 0.000000000000106581)"><g clip-path="url(#10013e53f9)"><g clip-path="url(#991a9f2959)"><g clip-path="url(#ba971f8a57)"><path fill="#746969" d="M 0.015625 0.878906 L 1083.484375 0.878906 L 1083.484375 478.277344 L 0.015625 478.277344 Z M 0.015625 0.878906 " fill-opacity="1" fill-rule="nonzero"/></g></g></g></g></g></g><g clip-path="url(#b787f6cd73)"><g clip-path="url(#7305bdbb7f)"><g clip-path="url(#3b49b15edd)"><path fill="#600700" d="M 461.984375 756.78125 L 466.164062 596.402344 L 400.265625 627.28125 L 406.824219 780.6875 L 461.984375 756.78125 " fill-opacity="1" fill-rule="nonzero"/></g></g></g><g clip-path="url(#78e855d44e)"><g clip-path="url(#bdd3093a41)"><g clip-path="url(#94f4d62fe6)"><path fill="#93281b" d="M 372.800781 753.820312 L 243.40625 673.113281 L 272.234375 623.210938 L 366.992188 611.910156 L 372.800781 753.820312 " fill-opacity="1" fill-rule="nonzero"/></g></g></g><g clip-path="url(#5d99c96fa2)"><g clip-path="url(#31b556ad46)"><g clip-path="url(#ab371656c5)"><path fill="#ddc04f" d="M 352.652344 790.628906 L 235.496094 835.734375 L 270.015625 709.292969 Z M 352.652344 790.628906 " fill-opacity="1" fill-rule="nonzero"/></g></g></g><g clip-path="url(#5bcfea40e5)"><g clip-path="url(#f8ac0d4f63)"><g clip-path="url(#0ab9229db3)"><g clip-path="url(#681817c27e)"><path fill="#93281b" d="M 149.546875 534.363281 L 101.535156 451.410156 L 417.402344 342.304688 L 417.171875 381.34375 L 149.546875 534.363281 " fill-opacity="1" fill-rule="nonzero"/></g></g></g></g><g clip-path="url(#907f5a5dd8)"><g clip-path="url(#92b576edc8)"><g clip-path="url(#1d6da0ba1d)"><path fill="#ddc04f" d="M 440.855469 383.496094 L 308.507812 592.464844 L 460.023438 563.457031 Z M 440.855469 383.496094 " fill-opacity="1" fill-rule="nonzero"/></g></g></g><g clip-path="url(#b6ba311949)"><g clip-path="url(#29bc541aa0)"><g clip-path="url(#39c98ba8e8)"><path fill="#d0483a" d="M 365.691406 443.761719 L 268.867188 605.203125 L 172.835938 542.734375 Z M 365.691406 443.761719 " fill-opacity="1" fill-rule="nonzero"/></g></g></g><g clip-path="url(#e9b4651c24)"><g clip-path="url(#e4271aba47)"><g clip-path="url(#92f22746b3)"><g clip-path="url(#08174ad923)"><path fill="#760504" d="M 227.558594 634.335938 L 214.066406 767.289062 L 49.25 689.128906 L 111.382812 510.398438 L 227.558594 634.335938 " fill-opacity="1" fill-rule="nonzero"/></g></g></g></g><g transform="matrix(1, 0, 0, 1, 436, 22)"><g clip-path="url(#0b5ba64447)"><g fill="#ffffff" fill-opacity="1"><g transform="translate(5.429759, 346.345014)"><g><path d="M 94.34375 3.84375 C 84.257812 3.84375 73.941406 2.332031 63.390625 -0.6875 C 52.847656 -3.707031 43.082031 -8.195312 34.09375 -14.15625 C 25.113281 -20.125 17.691406 -27.507812 11.828125 -36.3125 L 17.328125 -75.640625 L 28.609375 -75.640625 C 32.273438 -63.171875 37.820312 -52.304688 45.25 -43.046875 C 52.675781 -33.785156 61.15625 -26.675781 70.6875 -21.71875 C 80.21875 -16.769531 90.023438 -14.296875 100.109375 -14.296875 C 110.203125 -14.296875 118.316406 -16.128906 124.453125 -19.796875 C 130.597656 -23.460938 135.132812 -28.046875 138.0625 -33.546875 C 141 -39.054688 142.46875 -44.5625 142.46875 -50.0625 C 142.46875 -57.394531 140.175781 -64.546875 135.59375 -71.515625 C 131.007812 -78.484375 124.957031 -85.3125 117.4375 -92 C 109.925781 -98.695312 101.675781 -105.34375 92.6875 -111.9375 C 83.707031 -118.539062 74.722656 -125.234375 65.734375 -132.015625 C 56.753906 -138.804688 48.503906 -145.6875 40.984375 -152.65625 C 33.460938 -159.625 27.410156 -166.863281 22.828125 -174.375 C 18.242188 -181.894531 15.953125 -189.691406 15.953125 -197.765625 C 15.953125 -210.597656 19.390625 -221.226562 26.265625 -229.65625 C 33.140625 -238.09375 42.125 -244.421875 53.21875 -248.640625 C 64.3125 -252.859375 76.273438 -254.96875 89.109375 -254.96875 C 99.378906 -254.96875 109.648438 -253.820312 119.921875 -251.53125 C 130.191406 -249.238281 139.769531 -245.890625 148.65625 -241.484375 C 157.550781 -237.085938 164.929688 -231.585938 170.796875 -224.984375 L 165.296875 -188.6875 L 153.75 -188.6875 C 151 -199.5 145.863281 -208.617188 138.34375 -216.046875 C 130.832031 -223.472656 122.351562 -229.109375 112.90625 -232.953125 C 103.457031 -236.804688 94.335938 -238.734375 85.546875 -238.734375 C 76.003906 -238.734375 67.796875 -236.347656 60.921875 -231.578125 C 54.046875 -226.816406 50.609375 -219.578125 50.609375 -209.859375 C 50.609375 -204.722656 52.804688 -199.453125 57.203125 -194.046875 C 61.609375 -188.640625 67.429688 -183.046875 74.671875 -177.265625 C 81.921875 -171.492188 89.898438 -165.441406 98.609375 -159.109375 C 107.316406 -152.785156 116.070312 -146.1875 124.875 -139.3125 C 133.675781 -132.4375 141.742188 -125.238281 149.078125 -117.71875 C 156.410156 -110.195312 162.414062 -102.265625 167.09375 -93.921875 C 171.769531 -85.578125 174.289062 -76.820312 174.65625 -67.65625 C 175.207031 -52.988281 171.8125 -40.289062 164.46875 -29.5625 C 157.132812 -18.84375 147.28125 -10.59375 134.90625 -4.8125 C 122.53125 0.957031 109.007812 3.84375 94.34375 3.84375 Z M 94.34375 3.84375 "/></g></g></g><g fill="#ffffff" fill-opacity="1"><g transform="translate(189.42567, 346.345014)"><g><path d="M 124.046875 0 L 84.171875 0 L 84.171875 -233.796875 C 68.023438 -233.609375 53.851562 -232.140625 41.65625 -229.390625 C 29.46875 -226.640625 20.257812 -220.679688 14.03125 -211.515625 L 2.75 -211.515625 L 10.171875 -250.84375 L 197.765625 -250.84375 L 205.1875 -211.515625 L 193.90625 -211.515625 C 187.675781 -220.679688 178.507812 -226.640625 166.40625 -229.390625 C 154.300781 -232.140625 140.179688 -233.609375 124.046875 -233.796875 Z M 124.046875 0 "/></g></g></g><g fill="#ffffff" fill-opacity="1"><g transform="translate(397.349282, 346.345014)"><g><path d="M 34.109375 3.84375 C 27.867188 3.84375 22.503906 1.644531 18.015625 -2.75 C 13.523438 -7.15625 11.28125 -12.378906 11.28125 -18.421875 C 11.28125 -24.847656 13.523438 -30.257812 18.015625 -34.65625 C 22.503906 -39.050781 27.867188 -41.25 34.109375 -41.25 C 40.160156 -41.25 45.382812 -39.050781 49.78125 -34.65625 C 54.1875 -30.257812 56.390625 -24.847656 56.390625 -18.421875 C 56.390625 -12.378906 54.1875 -7.15625 49.78125 -2.75 C 45.382812 1.644531 40.160156 3.84375 34.109375 3.84375 Z M 34.109375 3.84375 "/></g></g></g><g fill="#ffffff" fill-opacity="1"><g transform="translate(465.282039, 346.345014)"><g><path d="M 115.796875 -250.84375 L 190.0625 0 L 159.25 0 L 159.25 -11 C 159.25 -19.988281 158.421875 -28.425781 156.765625 -36.3125 C 155.117188 -44.195312 153.289062 -51.617188 151.28125 -58.578125 L 140 -97.640625 L 73.71875 -97.640625 L 45.375 0 L 7.703125 0 L 81.96875 -250.84375 Z M 107.265625 -212.609375 L 78.65625 -114.6875 L 135.328125 -114.6875 Z M 107.265625 -212.609375 "/></g></g></g><g fill="#ffffff" fill-opacity="1"><g transform="translate(663.304572, 346.345014)"><g><path d="M 51.703125 0 L 11.828125 0 L 11.828125 -208.203125 L 51.703125 -208.203125 L 51.703125 -145.5 C 58.492188 -151.726562 64.546875 -158.421875 69.859375 -165.578125 C 75.179688 -172.734375 80.59375 -179.5625 86.09375 -186.0625 C 91.59375 -192.570312 97.914062 -197.890625 105.0625 -202.015625 C 112.21875 -206.140625 121.019531 -208.203125 131.46875 -208.203125 L 131.46875 -173 C 119.1875 -173 105.800781 -169.007812 91.3125 -161.03125 C 76.832031 -153.0625 63.628906 -141.285156 51.703125 -125.703125 Z M 51.703125 0 "/></g></g></g><g fill="#ffffff" fill-opacity="1"><g transform="translate(803.020442, 346.345014)"><g><path d="M 76.46875 3.84375 C 66.75 3.84375 57.578125 1.507812 48.953125 -3.15625 C 40.335938 -7.832031 33.367188 -14.800781 28.046875 -24.0625 C 22.734375 -33.320312 20.078125 -44.828125 20.078125 -58.578125 L 20.078125 -191.4375 L 3.578125 -191.4375 L 3.578125 -208.203125 L 20.078125 -208.203125 C 22.828125 -209.859375 25.625 -213.207031 28.46875 -218.25 C 31.3125 -223.289062 34.015625 -229.019531 36.578125 -235.4375 C 39.148438 -241.851562 41.210938 -248.175781 42.765625 -254.40625 C 44.328125 -260.644531 45.109375 -265.785156 45.109375 -269.828125 L 59.6875 -269.828125 L 59.953125 -208.203125 L 107 -208.203125 L 107 -191.4375 L 59.953125 -191.4375 L 59.953125 -61.609375 C 59.953125 -43.640625 62.148438 -30.570312 66.546875 -22.40625 C 70.953125 -14.25 76.179688 -10.171875 82.234375 -10.171875 C 87.003906 -10.171875 91.816406 -12.460938 96.671875 -17.046875 C 101.535156 -21.628906 105.890625 -28.140625 109.734375 -36.578125 C 113.585938 -45.015625 116.25 -54.828125 117.71875 -66.015625 L 129.265625 -66.015625 L 134.765625 -29.4375 C 127.429688 -18.425781 118.539062 -10.125 108.09375 -4.53125 C 97.644531 1.050781 87.101562 3.84375 76.46875 3.84375 Z M 76.46875 3.84375 "/></g></g></g></g></g></g></g></svg>